<?xml version="1.0" standalone="no"?>
<!DOCTYPE svg PUBLIC "-//W3C//DTD SVG 1.1//EN" "http://www.w3.org/Graphics/SVG/1.1/DTD/svg11.dtd" >
<svg xmlns="http://www.w3.org/2000/svg" xmlns:xlink="http://www.w3.org/1999/xlink" version="1.1">
<metadata></metadata>
<defs>
<font id="prelobold" horiz-adv-x="1085" >
<font-face units-per-em="2048" ascent="1536" descent="-512" />
<missing-glyph horiz-adv-x="368" />
<glyph unicode="&#xfb01;" horiz-adv-x="1126" d="M31 836v172l139 16v55q0 82 20.5 147.5t69.5 111.5t132 71t206 25q49 0 105.5 -6.5t108.5 -15.5t98 -21.5t77 -26.5l-24 -188q-29 8 -68 16t-84 14t-92 10.5t-90 4.5q-68 0 -107 -11.5t-58.5 -31t-24.5 -46t-5 -59.5v-49h604v-1024h-264v836h-340v-836h-264v836h-139z " />
<glyph unicode="&#xfb02;" horiz-adv-x="1126" d="M31 836v172l139 16v55q0 82 21.5 147.5t70.5 111.5t131 71t205 25q63 0 128 -8.5t124 -26.5h188v-1399h-264v1198q-49 16 -85 19.5t-60 3.5q-63 0 -102.5 -10.5t-60 -30t-26.5 -47t-6 -60.5v-49h225v-188h-225v-836h-264v836h-139z" />
<glyph unicode="&#xfb03;" horiz-adv-x="1724" d="M31 836v172l139 16v104q0 74 14.5 131.5t50 96.5t98 58.5t159.5 19.5q43 0 88 -5.5t90 -13.5l-25 -207q-37 6 -63.5 8.5t-51.5 2.5q-53 0 -74.5 -24t-21.5 -83v-88h334v55q0 82 20.5 147.5t69.5 111.5t132 71t208 25q49 0 104.5 -6.5t108.5 -15.5t99 -21.5t77 -26.5 l-26 -188q-27 8 -67 16t-84 14t-91 10.5t-90 4.5q-68 0 -107 -11.5t-58.5 -31t-24.5 -46t-5 -59.5v-49h604v-1024h-266v836h-338v-836h-266v836h-334v-836h-264v836h-139z" />
<glyph unicode="&#xfb04;" horiz-adv-x="1724" d="M31 836v172l139 16v104q0 74 14.5 131.5t50 96.5t98 58.5t159.5 19.5q43 0 88 -5.5t90 -13.5l-25 -207q-37 6 -63.5 8.5t-51.5 2.5q-53 0 -74.5 -24t-21.5 -83v-88h334v55q0 82 21.5 147.5t71.5 111.5t132 71t205 25q61 0 126 -8.5t124 -26.5h190v-1399h-266v1198 q-49 16 -84 19.5t-59 3.5q-63 0 -102.5 -10.5t-59.5 -30t-26.5 -47t-6.5 -60.5v-49h226v-188h-226v-836h-266v836h-334v-836h-264v836h-139z" />
<glyph horiz-adv-x="0" />
<glyph horiz-adv-x="682" />
<glyph unicode=" "  horiz-adv-x="368" />
<glyph unicode="&#x09;" horiz-adv-x="368" />
<glyph unicode="&#xa0;" horiz-adv-x="368" />
<glyph unicode="!" horiz-adv-x="440" d="M88 0v297h264v-297h-264zM88 1434h264l-14 -983h-236z" />
<glyph unicode="&#x22;" horiz-adv-x="849" d="M88 1393h264l-30 -359h-203zM498 1393h264l-31 -359h-203z" />
<glyph unicode="#" horiz-adv-x="1255" d="M88 209l18 174h205l27 256h-205l19 174h204l23 211h190l-24 -211h225l25 211h188l-22 -211h204l-18 -174h-205l-27 -256h205l-18 -174h-205l-23 -209h-188l23 209h-226l-22 -209h-191l23 209h-205zM500 383h225l29 256h-226z" />
<glyph unicode="$" horiz-adv-x="1249" d="M88 147l125 205q43 -27 95 -49t108.5 -38.5t113 -26t105.5 -9.5q121 0 176 47.5t55 116.5q0 49 -33.5 81t-84 53.5t-106.5 36t-99 26.5q-90 25 -166 62.5t-131.5 91t-86 123t-30.5 157.5q0 98 36 169t97.5 118t144 71.5t179.5 28.5v186h112v-186q129 -8 240 -44t188 -87 l-110 -219q-109 55 -203 78.5t-178 23.5q-121 0 -166 -41t-45 -98q0 -47 31.5 -80t80 -55.5t103.5 -37.5t102 -28q90 -20 167 -53t133.5 -83t88 -117.5t31.5 -159.5q0 -102 -35.5 -178t-97 -128.5t-146.5 -82t-184 -37.5v-189h-112v187q-72 2 -142.5 14t-135 33.5t-121 51.5 t-99.5 66z" />
<glyph unicode="%" horiz-adv-x="1556" d="M78 1098q0 139 73.5 219t219.5 80q143 0 217 -80t74 -219q0 -141 -74 -221t-217 -80q-145 0 -219 79.5t-74 221.5zM242 1098q0 -168 129 -168q127 0 127 168t-127 168q-129 0 -129 -168zM313 0l758 1393h172l-758 -1393h-172zM895 295q0 141 73.5 221t217.5 80 q145 0 219 -80t74 -221q0 -139 -74 -219t-219 -80q-143 0 -217 80t-74 219zM1059 295q0 -168 127 -168q129 0 129 168t-129 168q-127 0 -127 -168z" />
<glyph unicode="&#x26;" horiz-adv-x="1443" d="M84 365q0 53 14.5 102t49 97t96 96.5t155.5 101.5q-66 84 -106.5 152.5t-40.5 150.5q0 88 35 153.5t93 108.5t133 64.5t153 21.5q180 0 281.5 -89t101.5 -251q0 -39 -11.5 -80t-42 -84t-85 -88t-140.5 -90l277 -266q41 59 65.5 123.5t34.5 128.5h250q-12 -104 -56.5 -217 t-121.5 -213l157 -164l-172 -189l-174 181q-86 -61 -197.5 -98t-248.5 -37q-131 0 -225.5 28.5t-156 79.5t-90 122t-28.5 155zM367 408q0 -80 60 -140.5t177 -60.5q72 0 138.5 19.5t123.5 60.5l-329 342q-170 -98 -170 -221zM510 1077q0 -57 29.5 -103t78.5 -100 q90 51 135.5 101.5t45.5 107.5q0 43 -13.5 71t-34 45.5t-46 24.5t-48.5 7q-43 0 -70.5 -14.5t-45 -37t-24.5 -49t-7 -53.5z" />
<glyph unicode="'" horiz-adv-x="440" d="M88 1393h264l-30 -359h-203z" />
<glyph unicode="(" horiz-adv-x="675" d="M94 696q0 260 90 513t271 470h174q-145 -252 -207 -492.5t-62 -490.5q0 -246 61.5 -484.5t207.5 -498.5h-174q-180 217 -270.5 473t-90.5 510z" />
<glyph unicode=")" horiz-adv-x="675" d="M47 -287q143 260 205.5 499t62.5 484q0 250 -61 490.5t-207 492.5h174q180 -217 270.5 -470t90.5 -513q0 -254 -90.5 -510t-270.5 -473h-174z" />
<glyph unicode="*" horiz-adv-x="839" d="M68 1085l45 150l252 -92l-21 250h152l-21 -250l250 92l45 -150l-258 -30l170 -197l-119 -92l-145 238l-144 -238l-118 92l172 197z" />
<glyph unicode="+" horiz-adv-x="1024" d="M88 432v221h313v314h222v-314h313v-221h-313v-313h-222v313h-313z" />
<glyph unicode="," horiz-adv-x="440" d="M88 0v297h264v-297l-127 -266h-82l52 266h-107z" />
<glyph unicode="-" horiz-adv-x="1024" d="M88 432v221h848v-221h-848z" />
<glyph unicode="." horiz-adv-x="440" d="M88 0v297h264v-297h-264z" />
<glyph unicode="/" horiz-adv-x="1105" d="M57 0l758 1393h234l-758 -1393h-234z" />
<glyph unicode="0" horiz-adv-x="1208" d="M88 707q0 147 21.5 276t80 224.5t157.5 150.5t257 55q156 0 256.5 -55t157.5 -150.5t79.5 -224.5t22.5 -276q0 -150 -22.5 -282t-79.5 -231.5t-157.5 -156.5t-256.5 -57q-158 0 -257 57t-157.5 156.5t-80 231.5t-21.5 282zM369 707q0 -104 10 -196.5t36.5 -161 t71.5 -109.5t117 -41q70 0 116 41t72.5 109.5t37 160.5t10.5 197q0 104 -10.5 193t-37 154.5t-72.5 102.5t-116 37q-72 0 -117 -37t-71.5 -102.5t-36.5 -154.5t-10 -193z" />
<glyph unicode="1" horiz-adv-x="788" d="M45 1178q121 47 237.5 104t192.5 121h195v-1403h-267v1090l-282 -127z" />
<glyph unicode="2" horiz-adv-x="1126" d="M88 0v254q203 129 329 230.5t197.5 183.5t97 146.5t25.5 119.5q0 80 -25.5 126t-63.5 70.5t-80.5 31.5t-75.5 7q-68 0 -143 -13t-183 -56l-78 211q61 25 116.5 44t111 32.5t112.5 19.5t125 6q119 0 206 -32.5t144.5 -90t86 -134.5t28.5 -165q0 -109 -38 -205t-109.5 -187 t-174 -179t-233.5 -180v-4h575v-236h-950z" />
<glyph unicode="3" horiz-adv-x="1167" d="M88 80l80 203q98 -45 193.5 -64.5t193.5 -19.5q76 0 124 19.5t76.5 48t40 63.5t11.5 63q0 193 -275 193h-184v221h172q76 0 125 18.5t78 49t40 67.5t11 74q0 31 -11 62.5t-37 57t-68 42t-103 16.5q-94 0 -176 -19.5t-182 -64.5l-80 203q125 57 246.5 78.5t238.5 21.5 q90 0 170 -23.5t139.5 -69.5t93 -114.5t33.5 -158.5q0 -117 -64.5 -198t-176.5 -122v-4q143 -35 212.5 -130t69.5 -214q0 -195 -133 -297t-375 -102q-131 0 -246.5 20t-236.5 80z" />
<glyph unicode="4" horiz-adv-x="1208" d="M66 322v221q170 186 313 394t252 456h332v-850h178v-221h-178v-322h-267v322h-630zM338 543h358v504h-4q-43 -78 -84 -142.5t-84 -124t-89 -118t-97 -119.5z" />
<glyph unicode="5" horiz-adv-x="1167" d="M88 82l78 203q109 -49 194.5 -67.5t178.5 -18.5q129 0 194.5 70.5t65.5 174.5q0 43 -11.5 85t-37 77t-69.5 56.5t-108 21.5q-63 0 -119.5 -24.5t-101.5 -73.5l-188 16l26 791h807v-236h-577l-21 -340l4 -2q51 41 121 68.5t144 27.5q92 0 167.5 -29.5t130 -86t84 -140.5 t29.5 -194q0 -240 -139 -360.5t-387 -120.5q-123 0 -231.5 22.5t-233.5 79.5z" />
<glyph unicode="6" horiz-adv-x="1167" d="M86 614q0 233 49 388t132 246t193.5 128t233.5 37q100 0 180 -15.5t162 -41.5l-32 -205q-92 23 -159 32t-128 9q-76 0 -142.5 -29.5t-115.5 -83t-78 -127t-29 -164.5l4 -2q53 66 130 106t165 40q201 0 314.5 -125t113.5 -356q0 -111 -35.5 -198t-99 -148.5t-151.5 -93 t-193 -31.5q-139 0 -237.5 53t-160 141t-89 203t-27.5 237zM373 454.5q4 -69.5 26.5 -127t66.5 -93t120 -35.5q86 0 149.5 63.5t63.5 188.5q0 41 -9.5 85t-34 80.5t-66.5 60t-107 23.5q-66 0 -116 -31.5t-91 -78.5q-6 -66 -2 -135.5z" />
<glyph unicode="7" horiz-adv-x="1024" d="M68 1157v236h888v-189q-72 -127 -143.5 -260t-134 -280.5t-112.5 -311.5t-81 -352h-295q23 137 70 288.5t110.5 303t140.5 296t157 265.5v4h-600z" />
<glyph unicode="8" horiz-adv-x="1208" d="M88 348q0 127 75 211t206 135v4q-111 55 -175.5 137.5t-64.5 204.5q0 94 40 164t107.5 116t154.5 69.5t181 23.5q88 0 173 -22.5t149.5 -67.5t104.5 -112.5t40 -155.5q0 -117 -63.5 -189.5t-177.5 -130.5v-4q135 -66 208.5 -148.5t73.5 -205.5q0 -102 -42 -177 t-112.5 -124t-167 -72.5t-202.5 -23.5q-102 0 -194.5 21.5t-162 65.5t-110.5 113.5t-41 167.5zM360 377q0 -37 13.5 -74t44.5 -64.5t79 -45t115 -17.5q66 0 111 14.5t72.5 39t40 56t12.5 66.5q0 55 -27.5 93t-68.5 66t-91.5 47.5t-95.5 37.5q-41 -16 -77.5 -36.5 t-64.5 -47.5t-45.5 -60.5t-17.5 -74.5zM393 1047q0 -45 20.5 -80t55.5 -61.5t78 -45.5t90 -31q72 27 125 77t53 126q0 45 -17.5 80t-48 57.5t-70.5 35t-83 12.5q-39 0 -75 -11.5t-64.5 -33t-46 -53.5t-17.5 -72z" />
<glyph unicode="9" horiz-adv-x="1167" d="M86 942q0 111 36 198t99.5 148.5t151.5 93t194 31.5q139 0 236.5 -53t159 -141.5t89 -203t27.5 -237.5q0 -233 -49 -387.5t-132 -246t-192.5 -128t-232.5 -36.5q-100 0 -181 14t-163 41l33 205q92 -23 158.5 -32t128.5 -9q76 0 142 29.5t115.5 83t78 127t28.5 163.5l-4 2 q-53 -66 -130 -104.5t-165 -38.5q-199 0 -313.5 125t-114.5 356zM369 942q0 -43 9 -87t33.5 -81t66.5 -60.5t108 -23.5q63 0 113.5 32t91.5 79q6 68 1.5 136.5t-27 125.5t-66.5 93t-119 36q-86 0 -148.5 -63.5t-62.5 -186.5z" />
<glyph unicode=":" horiz-adv-x="440" d="M88 0v297h264v-297h-264zM88 645v297h264v-297h-264z" />
<glyph unicode=";" horiz-adv-x="440" d="M88 0v297h264v-297l-127 -266h-82l52 266h-107zM88 645v297h264v-297h-264z" />
<glyph unicode="&#x3c;" horiz-adv-x="983" d="M88 432v160l807 405v-233l-526 -252l526 -252v-233z" />
<glyph unicode="=" horiz-adv-x="1024" d="M88 227v222h848v-222h-848zM88 637v221h848v-221h-848z" />
<glyph unicode="&#x3e;" horiz-adv-x="983" d="M88 27v233l526 252l-526 252v233l807 -405v-160z" />
<glyph unicode="?" horiz-adv-x="983" d="M68 1333q90 35 203.5 57.5t224.5 22.5q125 0 205.5 -33.5t129 -88t66.5 -120t18 -127.5q0 -82 -25.5 -142t-65.5 -106t-85 -82t-85 -70t-65.5 -70.5t-25.5 -81.5v-62h-235v62q0 80 23.5 137t58 98t75.5 72.5t76 62.5t58.5 66t23.5 84q0 51 -20.5 81.5t-51 46t-66.5 19.5 t-65 4q-51 0 -131 -14t-166 -43zM313 0v297h265v-297h-265z" />
<glyph unicode="@" horiz-adv-x="1699" d="M61 518q0 178 62.5 328.5t173.5 259t262.5 169t329.5 60.5q156 0 292 -48t237.5 -136t160.5 -211t59 -272q0 -109 -31.5 -206t-94 -170t-154.5 -115t-215 -42h-168v80h-2q-49 -53 -103.5 -73.5t-130.5 -20.5q-119 0 -183 68.5t-64 172.5q0 74 29.5 122t77.5 77t108.5 40 t119.5 11h148v54q0 59 -33 89.5t-111 30.5q-47 0 -115.5 -12t-148.5 -35l-37 140q86 29 172 47t183 18q68 0 123 -13t94 -44t60.5 -82t21.5 -127v-389q82 0 138 36.5t89 92t47.5 120t14.5 121.5q0 119 -45.5 216.5t-124 166t-185 105.5t-229.5 37q-145 0 -266 -48.5 t-208 -136.5t-136.5 -210.5t-49.5 -270.5q0 -133 45 -245.5t125 -195.5t190.5 -130t241.5 -47l-14 -146q-166 0 -305 58.5t-238.5 161t-156 241.5t-56.5 303zM700 381q0 -53 34 -77.5t83 -24.5q57 0 97 16t61 33v164h-129q-57 0 -101.5 -23t-44.5 -88z" />
<glyph unicode="A" horiz-adv-x="1331" d="M47 0l449 1403h344l444 -1403h-311l-94 315h-441l-94 -315h-297zM496 551h325l-157 500h-2z" />
<glyph unicode="B" horiz-adv-x="1249" d="M109 0v1393h587q219 0 332 -93.5t113 -263.5q0 -113 -56.5 -195.5t-154.5 -117.5v-4q115 -35 183.5 -119t68.5 -219q0 -180 -113 -280.5t-332 -100.5h-628zM389 250h303q88 0 141.5 36t53.5 134q0 94 -54.5 132t-150.5 38h-293v-340zM389 840h277q90 0 135 34.5t45 116.5 q0 152 -180 152h-277v-303z" />
<glyph unicode="C" horiz-adv-x="1269" d="M88 707q0 147 27.5 276t98.5 224.5t189.5 150.5t303.5 55q125 0 241.5 -17.5t259.5 -58.5l-63 -235q-82 18 -141.5 30.5t-107.5 19.5t-87 9t-80 2q-96 0 -162.5 -32.5t-107.5 -92t-58.5 -143.5t-17.5 -188q0 -111 17.5 -200t58.5 -150.5t107.5 -94.5t162.5 -33q41 0 80 2 t87 9.5t107.5 19.5t141.5 31l63 -236q-143 -41 -260 -58t-241 -17q-184 0 -303 57t-190 156.5t-98.5 231.5t-27.5 282z" />
<glyph unicode="D" horiz-adv-x="1331" d="M109 0v1393h518q180 0 298.5 -52.5t189.5 -143.5t99.5 -217t28.5 -273q0 -150 -28.5 -279t-99.5 -224t-189.5 -149.5t-298.5 -54.5h-518zM389 250h238q98 0 161.5 32.5t98.5 92t48 143.5t13 189q0 104 -13 185t-48 136t-98.5 85t-161.5 30h-238v-893z" />
<glyph unicode="E" horiz-adv-x="1146" d="M109 0v1393h940v-250h-660v-299h567v-250h-567v-344h670v-250h-950z" />
<glyph unicode="F" horiz-adv-x="1095" d="M109 0v1393h919v-250h-639v-340h547v-250h-547v-553h-280z" />
<glyph unicode="G" horiz-adv-x="1310" d="M88 707q0 147 27.5 276t98.5 224.5t189.5 150.5t303.5 55q125 0 241.5 -17.5t259.5 -58.5l-63 -235q-82 18 -141.5 30.5t-107.5 19.5t-87 9t-80 2q-96 0 -162.5 -32.5t-107.5 -92t-58.5 -143.5t-17.5 -188q0 -111 17.5 -200t58.5 -150.5t107.5 -94.5t162.5 -33 q53 0 100.5 10.5t92.5 28.5v230h-215v250h495v-672q-129 -45 -242.5 -70.5t-252.5 -25.5q-184 0 -303 57t-190 156.5t-98.5 231.5t-27.5 282z" />
<glyph unicode="H" horiz-adv-x="1310" d="M109 0v1393h280v-549h533v549h280v-1393h-280v594h-533v-594h-280z" />
<glyph unicode="I" horiz-adv-x="495" d="M109 0v1393h280v-1393h-280z" />
<glyph unicode="J" horiz-adv-x="720" d="M29 -2l24 235q31 -6 58.5 -8t58.5 -2q70 0 117 33t47 129v1008h280v-1022q0 -106 -25.5 -180t-73.5 -121t-116.5 -68.5t-152.5 -21.5q-131 0 -217 18z" />
<glyph unicode="K" horiz-adv-x="1302" d="M109 0v1393h280v-633l524 633h336l-485 -586l489 -807h-350l-344 582l-170 -207v-375h-280z" />
<glyph unicode="L" horiz-adv-x="1105" d="M109 0v1393h280v-1143h649v-250h-929z" />
<glyph unicode="M" horiz-adv-x="1638" d="M109 0v1393h372l344 -910h4l328 910h373v-1393h-281v887h-4l-332 -887h-204l-324 887h-4v-887h-272z" />
<glyph unicode="N" horiz-adv-x="1331" d="M109 0v1393h280l557 -875h4v875h273v-1393h-295l-543 844h-4v-844h-272z" />
<glyph unicode="O" horiz-adv-x="1413" d="M88 707q0 147 27.5 276t98.5 224.5t189.5 150.5t303.5 55q184 0 302.5 -55t189.5 -150.5t98.5 -224.5t27.5 -276q0 -150 -27.5 -282t-98.5 -231.5t-189.5 -156.5t-302.5 -57t-303 57t-190 156.5t-98.5 231.5t-27.5 282zM383 707q0 -104 12.5 -193.5t47 -156t98 -104.5 t166.5 -38q102 0 165.5 38t98.5 104.5t47 155.5t12 194q0 104 -12 190t-47 148.5t-98.5 97.5t-165.5 35t-166 -35t-98.5 -97.5t-47 -148.5t-12.5 -190z" />
<glyph unicode="P" horiz-adv-x="1228" d="M106 0v1393h594q111 0 196 -33t144.5 -91.5t90 -142.5t30.5 -184q0 -209 -119.5 -329.5t-341.5 -120.5h-311v-492h-283zM389 741h281q90 0 146 45t56 156q0 94 -57 146.5t-145 52.5h-281v-400z" />
<glyph unicode="Q" horiz-adv-x="1413" d="M86 707q0 147 27.5 276t98.5 224.5t190.5 150.5t304.5 55q182 0 301.5 -55t190.5 -150.5t98.5 -224.5t27.5 -276q0 -276 -108.5 -443.5t-323.5 -185.5v-6q39 -23 102.5 -34t137.5 -11q39 2 78.5 4t78.5 6v-252q-37 -4 -70.5 -6t-68.5 -2q-80 0 -156.5 11t-142.5 35.5 t-119 63.5t-84 93q-162 8 -270.5 69.5t-173 159.5t-92 226.5t-27.5 271.5zM383 707q0 -104 12.5 -193.5t47 -156t98 -104.5t166.5 -38q102 0 164.5 38t97.5 104.5t47 155.5t12 194q0 104 -12 190t-47 148.5t-97.5 97.5t-164.5 35t-166 -35t-98.5 -97.5t-47 -148.5 t-12.5 -190z" />
<glyph unicode="R" horiz-adv-x="1259" d="M109 0v1393h593q219 0 339 -122t120 -327q0 -141 -67.5 -250.5t-208.5 -150.5l325 -543h-327l-291 498h-203v-498h-280zM389 748h277q45 0 82.5 10t65.5 33.5t43 60.5t15 92q0 106 -56 152.5t-144 46.5h-283v-395z" />
<glyph unicode="S" horiz-adv-x="1228" d="M88 55l47 236q166 -39 281.5 -50.5t197.5 -11.5q109 0 170.5 44t61.5 114q0 49 -27.5 80t-74 52.5t-103.5 36.5t-119 34q-90 25 -165.5 62.5t-131 91t-86 123t-30.5 157.5q0 104 39.5 179t109.5 121t161 67.5t195 21.5q119 0 234 -17.5t258 -58.5l-64 -235 q-82 18 -143 30.5t-111.5 19.5t-91.5 9t-82 2q-109 0 -160 -41t-51 -106q0 -43 26 -73t70 -51.5t101 -37.5t121 -31q90 -20 167 -53t133 -83t88 -117.5t32 -159.5q0 -111 -41 -193t-111.5 -134t-167 -77.5t-207.5 -25.5q-119 0 -252 17t-274 58z" />
<glyph unicode="T" horiz-adv-x="1146" d="M68 1143v250h1011v-250h-364v-1143h-283v1143h-364z" />
<glyph unicode="U" horiz-adv-x="1310" d="M109 492v901h280v-901q0 -129 59 -203t209 -74q80 0 132.5 22.5t81 60.5t40 88t11.5 106v901h280v-901q0 -135 -39 -232.5t-110.5 -160t-173 -91t-224.5 -28.5q-125 0 -225 28.5t-172 91t-110.5 159.5t-38.5 233z" />
<glyph unicode="V" horiz-adv-x="1331" d="M47 1393h311l316 -1051h2l311 1051h297l-444 -1403h-344z" />
<glyph unicode="W" horiz-adv-x="1925" d="M47 1393h311l222 -1047h2l223 1047h330l229 -1047h2l215 1047h297l-340 -1403h-360l-213 950h-4l-213 -950h-361z" />
<glyph unicode="X" horiz-adv-x="1331" d="M47 0l422 721l-397 672h327l263 -443l251 443h330l-399 -672l438 -721h-338l-303 494l-279 -494h-315z" />
<glyph unicode="Y" horiz-adv-x="1269" d="M47 1393h320l274 -617h4l273 617h305l-447 -901v-492h-282v492z" />
<glyph unicode="Z" horiz-adv-x="1146" d="M61 0v205l621 934v4h-580v250h963v-205l-612 -934v-4h632v-250h-1024z" />
<glyph unicode="[" horiz-adv-x="614" d="M88 -287v1966h479v-157h-198v-1651h198v-158h-479z" />
<glyph unicode="\" horiz-adv-x="1105" d="M57 1393h234l758 -1393h-234z" />
<glyph unicode="]" horiz-adv-x="614" d="M47 -129h199v1651h-199v157h479v-1966h-479v158z" />
<glyph unicode="^" horiz-adv-x="778" d="M88 1044l219 390h162l221 -390h-141l-160 244l-160 -244h-141z" />
<glyph unicode="_" horiz-adv-x="1024" d="M88 -123h848v-158h-848v158z" />
<glyph unicode="`" horiz-adv-x="593" d="M135 1434h234l102 -287h-154z" />
<glyph unicode="a" horiz-adv-x="1034" d="M57 295q0 94 39 155.5t100.5 98.5t138.5 51t152 14h195v72q0 80 -49 109.5t-152 29.5q-59 0 -135 -9t-186 -32l-39 213q111 23 220.5 35t201.5 12q98 0 173 -15t126 -53t77.5 -104.5t26.5 -169.5v-702h-264v102h-4q-66 -68 -136.5 -95t-166.5 -27q-78 0 -136.5 24.5 t-99.5 66.5t-61.5 99t-20.5 125zM322 317q0 -68 47 -100.5t112 -32.5q63 0 117.5 20.5t83.5 43.5v209h-180q-180 0 -180 -140z" />
<glyph unicode="b" d="M88 -6v1440h264v-512h4q49 53 126 87.5t163 34.5q106 0 178 -41.5t115 -114.5t61.5 -169t18.5 -207t-20.5 -207t-66.5 -169t-121 -114.5t-181 -41.5q-78 0 -156 30.5t-131 83.5h-4l-47 -100h-203zM352 262q25 -18 73 -40.5t114 -22.5q57 0 96 24.5t61.5 66.5t31.5 99 t9 123t-9 123t-31.5 99t-61.5 66.5t-96 24.5q-66 0 -114 -22.5t-73 -42.5v-498z" />
<glyph unicode="c" horiz-adv-x="983" d="M68 512q0 121 26.5 219t88 168t161.5 107.5t250 37.5q98 0 182 -13t176 -36l-47 -211q-63 14 -109 23.5t-82 12.5t-63.5 4t-56.5 1q-117 0 -181.5 -77.5t-64.5 -235.5q0 -154 61.5 -233.5t184.5 -79.5q29 0 56.5 1t63.5 4t82 11t109 25l47 -213q-92 -23 -176 -35 t-182 -12q-150 0 -250 37.5t-161.5 107.5t-88 168t-26.5 219z" />
<glyph unicode="d" d="M66 512q0 109 20 206t66.5 170t120 114.5t182.5 41.5q78 0 150.5 -31.5t121.5 -84.5h4v506h266v-1434h-266v102h-4q-49 -53 -126 -87.5t-161 -34.5q-109 0 -180.5 41.5t-114.5 114.5t-61 169t-18 207zM348 512q0 -66 9.5 -123t32 -99t60 -66.5t97.5 -24.5q66 0 113 22.5 t71 40.5v498q-25 18 -72 40.5t-112 22.5q-59 0 -97 -24.5t-60.5 -66.5t-32 -98t-9.5 -122z" />
<glyph unicode="e" d="M68 512q0 121 27.5 219t90 168t163 107.5t245.5 37.5q162 0 255 -50t135 -133t45 -189q0 -17 1 -33q0 -89 -14 -182h-662q6 -117 74 -187.5t209 -70.5q66 0 142.5 6t174.5 35l33 -213q-102 -29 -194.5 -38t-192.5 -9q-147 0 -249.5 37.5t-165 107.5t-90 168t-27.5 219z M354 621h404q4 26 4 50q0 17 -2 33q-4 40 -23.5 70.5t-57.5 48t-99 17.5q-113 0 -164 -59.5t-62 -159.5z" />
<glyph unicode="f" horiz-adv-x="706" d="M31 836v172l139 16v104q0 74 14.5 131.5t50 96.5t98 58.5t159.5 19.5q43 0 88 -5.5t90 -13.5l-25 -207q-37 6 -63.5 8.5t-51.5 2.5q-53 0 -74.5 -24t-21.5 -83v-88h215v-188h-215v-836h-264v836h-139z" />
<glyph unicode="g" horiz-adv-x="1136" d="M41 -164q0 68 37 118t123 91v4q-49 31 -67 77q-13 31 -13 64q0 16 3 32q9 50 47 98.5t105 85.5v4q-78 39 -121.5 113.5t-43.5 172.5q0 88 30.5 153.5t88 108.5t136 64.5t177.5 21.5q41 0 78.5 -5t68.5 -15h379v-158h-164v-4q27 -25 43.5 -69.5t16.5 -96.5 q0 -90 -32 -154.5t-88.5 -105.5t-133 -61.5t-168.5 -20.5q-29 0 -64 4t-67 15q-39 -51 -39 -95q0 -51 61 -55l348 -24q158 -10 236 -71.5t78 -184.5q0 -197 -149.5 -285t-465.5 -88q-227 0 -333.5 64.5t-106.5 201.5zM260 -119q0 -41 21.5 -66.5t57.5 -42t84 -22.5t101 -6 q55 0 107.5 8t93.5 26.5t65.5 47.5t24.5 68q0 37 -29.5 63.5t-97.5 30.5l-358 20q-29 -29 -49.5 -54.5t-20.5 -72.5zM360 696q0 -86 49.5 -128t133.5 -42q82 0 131 42t49 128t-50 130t-130 44q-86 0 -134.5 -44t-48.5 -130z" />
<glyph unicode="h" d="M86 0v1434h266v-543h4q66 72 150 112.5t184 40.5q154 0 230.5 -92t76.5 -252v-700h-266v639q0 80 -40 132t-124 52q-63 0 -119.5 -26.5t-95.5 -53.5v-743h-266z" />
<glyph unicode="i" horiz-adv-x="440" d="M88 0v1024h264v-1024h-264zM88 1153v281h264v-281h-264z" />
<glyph unicode="j" horiz-adv-x="522" d="M-68 -412l25 205q29 -6 52.5 -8t41.5 -2q68 0 93.5 22.5t25.5 88.5v1130h264v-1149q0 -76 -14 -133t-50 -95t-98.5 -57.5t-158.5 -19.5q-41 0 -88.5 4t-92.5 14zM170 1153v281h264v-281h-264z" />
<glyph unicode="k" horiz-adv-x="1126" d="M88 0v1434h264v-768l385 358h322l-373 -369l393 -655h-313l-266 473l-148 -135v-338h-264z" />
<glyph unicode="l" horiz-adv-x="440" d="M88 0v1434h264v-1434h-264z" />
<glyph unicode="m" horiz-adv-x="1699" d="M86 0v1024h266v-133h4q59 66 139 109.5t181 43.5q104 0 173 -45t101 -125q78 88 167 129t188 41q154 0 230.5 -92t76.5 -252v-700h-266v639q0 88 -41 136t-123 48q-59 0 -110.5 -26.5t-92.5 -53.5q2 -31 3 -63.5t1 -65.5v-614h-266v649q0 82 -43 128t-121 46 q-59 0 -110.5 -26.5t-90.5 -53.5v-743h-266z" />
<glyph unicode="n" d="M86 0v1024h266v-133h4q66 72 150 112.5t184 40.5q154 0 230.5 -92t76.5 -252v-700h-266v639q0 80 -38 132t-126 52q-63 0 -119.5 -26.5t-95.5 -53.5v-743h-266z" />
<glyph unicode="o" horiz-adv-x="1126" d="M68 512q0 121 26.5 219t86 168t153.5 107.5t229 37.5t229.5 -37.5t154 -107.5t86 -168t26.5 -219t-26.5 -219t-86 -168t-154 -107.5t-229.5 -37.5t-229 37.5t-153.5 107.5t-86 168t-26.5 219zM348 512q0 -72 10.5 -129t35 -98t65.5 -63.5t104 -22.5q125 0 170 85t45 228 t-45 228t-170 85q-63 0 -104 -22.5t-65.5 -63.5t-35 -98t-10.5 -129z" />
<glyph unicode="p" d="M86 -410v1434h266v-102h4q49 53 126 87.5t163 34.5q106 0 178 -41.5t115 -114.5t61.5 -170t18.5 -206q0 -111 -20.5 -207t-66.5 -169t-121 -114.5t-181 -41.5q-78 0 -150.5 30.5t-122.5 83.5h-4v-504h-266zM352 262q25 -18 72 -40.5t113 -22.5q57 0 96 24.5t62.5 66.5 t32.5 99t9 123t-9 122t-32.5 98t-62.5 66.5t-96 24.5q-66 0 -113 -22.5t-72 -40.5v-498z" />
<glyph unicode="q" d="M68 512q0 111 20.5 207t66.5 169t119.5 114.5t182.5 41.5q78 0 155.5 -31.5t130.5 -84.5h5l47 102h202v-1440h-264v512h-4q-49 -53 -127 -87.5t-162 -34.5q-109 0 -180.5 41.5t-114.5 114.5t-60 169t-17 207zM348 512q0 -66 9.5 -123t32 -99t60 -66.5t97.5 -24.5 q66 0 114 22.5t72 40.5v498q-25 20 -73 42.5t-113 22.5q-59 0 -97 -24.5t-60.5 -66.5t-32 -99t-9.5 -123z" />
<glyph unicode="r" horiz-adv-x="757" d="M86 0v1024h266v-164h4q25 35 61 68t80 59.5t98 41.5t116 15v-251q-104 0 -200.5 -24t-158.5 -56v-713h-266z" />
<glyph unicode="s" horiz-adv-x="983" d="M57 29l47 211q127 -31 229 -39t159 -8q49 0 81.5 10t52 25.5t28 31.5t8.5 31q0 41 -43.5 62.5t-135.5 37.5q-86 14 -160.5 39t-129 63.5t-85 98t-30.5 145.5q0 164 108.5 235.5t294.5 71.5q125 0 231.5 -13t198.5 -36l-47 -211q-129 31 -219 39t-149 8q-47 0 -77 -8 t-46.5 -21.5t-23.5 -28.5t-7 -28q0 -37 34 -59t132 -45q74 -16 147.5 -36.5t134 -56.5t98.5 -93.5t38 -145.5q0 -170 -108.5 -249.5t-295.5 -79.5q-125 0 -248.5 13t-216.5 36z" />
<glyph unicode="t" horiz-adv-x="768" d="M31 836v172l139 16l31 287h233v-287h256v-188h-256v-498q0 -66 34 -107t116 -41q18 0 40.5 4t51.5 7l24 -203q-43 -6 -101 -12t-101 -6q-174 0 -251 73.5t-77 239.5v543h-139z" />
<glyph unicode="u" d="M86 322v702h266v-641q0 -80 42 -132t122 -52q63 0 119.5 27.5t95.5 52.5v745h266v-1024h-266v133h-4q-66 -72 -149.5 -112.5t-184.5 -40.5q-154 0 -230.5 92t-76.5 250z" />
<glyph unicode="v" horiz-adv-x="1146" d="M51 1024h297l230 -741h4l231 741h283l-363 -1034h-323z" />
<glyph unicode="w" horiz-adv-x="1617" d="M51 1024h297l178 -741h4l156 741h258l170 -741h4l168 741h281l-297 -1034h-297l-164 626h-4l-158 -626h-297z" />
<glyph unicode="x" horiz-adv-x="1116" d="M45 0l354 532l-323 492h307l190 -301l187 301h276l-325 -483l358 -541h-313l-219 336l-207 -336h-285z" />
<glyph unicode="y" horiz-adv-x="1146" d="M51 1024h297l236 -748h4l225 748h283l-363 -1061q-37 -111 -81 -185.5t-99 -120.5t-123 -66.5t-154 -20.5q-41 0 -92 4t-92 14l25 219q25 -4 53.5 -7t44.5 -3q74 0 130 51.5t85 137.5z" />
<glyph unicode="z" horiz-adv-x="962" d="M39 0v188l522 627v4h-491v205h829v-188l-516 -627v-4h541v-205h-885z" />
<glyph unicode="{" horiz-adv-x="696" d="M88 631v131q53 8 83 26.5t43 47t15 68.5t2 89q0 92 -10 192.5t-10 194.5q0 104 35 165t95 90.5t139 36.5t169 7v-112q-33 0 -61.5 -3t-50 -22.5t-33.5 -61.5t-12 -118q0 -47 4 -101.5t9 -109.5t9 -109.5t4 -101.5q0 -61 -15.5 -102t-43 -68t-65.5 -43t-81 -29v-4 q43 -12 81 -28.5t65.5 -43t43 -67.5t15.5 -102q0 -47 -4 -101.5t-9 -110t-9 -109.5t-4 -101q0 -76 12 -118t33.5 -61.5t50 -22.5t61.5 -3v-113q-90 0 -169 7.5t-139 37t-95 90t-35 164.5q0 94 10 194.5t10 192.5q0 49 -2 88t-15 69t-43 48.5t-83 26.5z" />
<glyph unicode="|" horiz-adv-x="348" d="M88 -205v1802h172v-1802h-172z" />
<glyph unicode="}" horiz-adv-x="696" d="M47 -174q33 0 61.5 3t50 22.5t34 61.5t12.5 118q0 47 -4 101t-9.5 109.5t-9.5 110t-4 101.5q0 61 15.5 102t43 67.5t65.5 43t81 28.5v4q-43 12 -81 28.5t-65.5 43.5t-43 68t-15.5 102q0 47 4 101.5t9.5 109.5t9.5 109.5t4 101.5q0 76 -12.5 118t-34 61.5t-50 22.5 t-61.5 3v112q88 0 168 -7t140.5 -36.5t95 -90t34.5 -165.5q0 -94 -10 -194.5t-10 -192.5q0 -49 2 -89t15.5 -68.5t43 -47t82.5 -26.5v-131q-53 -8 -82.5 -26.5t-43 -48.5t-15.5 -68.5t-2 -88.5q0 -92 10 -192.5t10 -194.5q0 -104 -34.5 -164.5t-95 -90t-140.5 -37t-168 -7.5 v113z" />
<glyph unicode="~" horiz-adv-x="942" d="M74 600q53 111 111.5 156t111.5 45q37 0 90 -14.5t107.5 -31t101.5 -30.5t74 -14q29 0 59.5 8t73.5 61l67 -80q-43 -88 -91 -125.5t-103 -37.5q-33 0 -84 13t-104.5 28.5t-103.5 29t-81 13.5q-29 0 -61.5 -15.5t-85.5 -70.5z" />
<glyph unicode="&#xa1;" horiz-adv-x="440" d="M88 -410l14 983h236l14 -983h-264zM88 727v297h264v-297h-264z" />
<glyph unicode="&#xa2;" horiz-adv-x="1044" d="M86 512q0 117 34 212t98.5 164.5t155.5 109.5t206 44v187h112v-191q74 -4 138.5 -22.5t142.5 -50.5l-33 -205q-74 29 -131 43t-117 18v-620q59 4 116.5 18t131.5 43l33 -205q-78 -33 -142.5 -50t-138.5 -21v-191h-112v187q-115 4 -206 44t-155.5 108.5t-98.5 164.5 t-34 213zM369 512q0 -133 56 -212t155 -95v610q-98 -14 -154.5 -94t-56.5 -209z" />
<glyph unicode="&#xa3;" horiz-adv-x="1269" d="M88 0v236h102v368h-102v205h102v215q0 104 38 179t104.5 121t156 67.5t193.5 21.5q147 0 281.5 -37t224.5 -96l-111 -219q-109 55 -203 78.5t-178 23.5q-121 0 -181 -47t-60 -127v-180h440v-205h-440v-368h686v-236h-1053z" />
<glyph unicode="&#xa4;" horiz-adv-x="1050" d="M143 928l17 16l162 -184q41 35 93 54.5t111 19.5q57 0 109.5 -19.5t93.5 -54.5l160 184l18 -16l-159 -183q47 -45 74.5 -105t27.5 -130t-26.5 -130.5t-73.5 -103.5l155 -176l-18 -18l-158 178q-41 -35 -93 -53.5t-110 -18.5q-59 0 -111.5 18.5t-92.5 53.5l-156 -178 l-19 18l156 176q-47 45 -72.5 104.5t-25.5 129.5t25.5 129t72.5 104zM229 510q0 -61 23.5 -114.5t64.5 -94.5t94.5 -64.5t114.5 -23.5t115.5 23.5t95.5 64.5t64.5 94.5t23.5 114.5t-23.5 115.5t-64.5 95.5t-95 64.5t-116 23.5q-61 0 -114.5 -23.5t-94.5 -64.5t-64.5 -95.5 t-23.5 -115.5z" />
<glyph unicode="&#xa5;" horiz-adv-x="1351" d="M88 1393h320l274 -617h4l272 617h306l-406 -815h283v-158h-324v-420h-282v420h-324v158h283z" />
<glyph unicode="&#xa6;" horiz-adv-x="348" d="M88 -205v819h172v-819h-172zM88 778v819h172v-819h-172z" />
<glyph unicode="&#xa7;" horiz-adv-x="1228" d="M92 696q0 111 44 192t122 134q-72 53 -112 130t-40 179q0 104 41 178t110 121t161 68.5t196 21.5q147 0 274.5 -37.5t217.5 -95.5l-111 -221q-109 55 -204 78.5t-177 23.5q-94 0 -152.5 -34.5t-58.5 -102.5q0 -47 32 -79.5t80 -55t103.5 -38t102.5 -28.5 q90 -23 167 -55.5t133 -81.5t88 -117.5t32 -158.5q0 -115 -44 -196t-122 -132q70 -55 110.5 -131t40.5 -176q0 -104 -41 -178t-109.5 -121t-160.5 -68.5t-197 -21.5q-147 0 -274 38t-217 95l111 219q109 -53 204 -76.5t176 -23.5q92 0 151.5 35.5t59.5 101.5q0 45 -31.5 78 t-79.5 56.5t-103.5 37.5t-102.5 27q-90 20 -167 54t-133 83t-88 117.5t-32 160.5zM389 711q0 -41 22.5 -69t56.5 -47.5t75 -32.5t78 -23l112 -33q53 31 82 83t29 111q0 43 -25.5 73t-63.5 49.5t-83 32.5t-84 24l-90 22q-53 -29 -81 -81t-28 -109z" />
<glyph unicode="&#xa8;" horiz-adv-x="983" d="M129 1167v267h233v-267h-233zM621 1167v267h233v-267h-233z" />
<glyph unicode="&#xa9;" horiz-adv-x="1566" d="M61 696q0 150 56.5 281t155 227t229.5 152.5t280 56.5q150 0 282 -56.5t230.5 -152.5t154.5 -227t56 -281t-56 -280.5t-154.5 -227t-230.5 -152.5t-282 -56t-280.5 56t-229 152.5t-155 227t-56.5 280.5zM182 696q0 -125 47 -234.5t128 -191.5t190.5 -130t234.5 -48 t234.5 48t191.5 130t129 191.5t47 234.5t-47 233.5t-129 189.5t-191.5 127t-234.5 46t-234.5 -46t-190.5 -127t-128 -189.5t-47 -233.5zM436 705q0 174 94.5 263t262.5 89q96 0 160.5 -26.5t105.5 -55.5l-58 -121q-55 37 -108 50.5t-90 13.5q-94 0 -145.5 -50.5 t-51.5 -162.5q0 -121 51.5 -177.5t145.5 -56.5q37 0 90 13.5t108 47.5l58 -118q-41 -29 -105.5 -55.5t-160.5 -26.5q-168 0 -262.5 96t-94.5 277z" />
<glyph unicode="&#xaa;" horiz-adv-x="600" d="M78 1028q0 47 19.5 78t50 49.5t68.5 25.5t77 7h96v37q0 41 -23.5 55t-74.5 14q-31 0 -69 -4t-93 -16l-20 106q55 10 110 16.5t103 6.5q96 0 148 -34t52 -136v-352h-133v51h-2q-33 -33 -67.5 -47.5t-83.5 -14.5q-78 0 -118 46.5t-40 111.5zM209 1040q0 -35 23.5 -51 t58.5 -16q31 0 57.5 11t40.5 22v104h-88q-92 0 -92 -70z" />
<glyph unicode="&#xab;" horiz-adv-x="1495" d="M88 432v160l602 391v-281l-321 -190l321 -190v-281zM805 432v160l602 391v-281l-322 -190l322 -190v-281z" />
<glyph unicode="&#xac;" horiz-adv-x="1208" d="M129 432v221h950v-432h-219v211h-731z" />
<glyph unicode="&#xad;" horiz-adv-x="1105" d="M129 432v221h848v-221h-848z" />
<glyph unicode="&#xae;" horiz-adv-x="1566" d="M61 696q0 150 56.5 281t155 227t229.5 152.5t280 56.5q150 0 282 -56.5t230.5 -152.5t154.5 -227t56 -281t-56 -280.5t-154.5 -227t-230.5 -152.5t-282 -56t-280.5 56t-229 152.5t-155 227t-56.5 280.5zM180 696q0 -125 47 -234.5t129 -191.5t191.5 -130t234.5 -48 t234.5 48t191.5 130t129 191.5t47 234.5t-47 233.5t-129 189.5t-191.5 127t-234.5 46t-234.5 -46t-191.5 -127t-129 -189.5t-47 -233.5zM510 344v705h293q127 0 204.5 -61.5t77.5 -182.5q0 -86 -39.5 -142.5t-107.5 -76.5l174 -242h-194l-148 213h-102v-213h-158zM668 698 h133q53 0 88 23.5t35 83.5q0 55 -34 78.5t-87 23.5h-135v-209z" />
<glyph unicode="&#xaf;" horiz-adv-x="901" d="M119 1174v188h663v-188h-663z" />
<glyph unicode="&#xb0;" horiz-adv-x="532" d="M72 1188q0 39 15 74.5t42 62.5t61.5 42t75.5 15q39 0 75 -15t62.5 -42t42 -62.5t15.5 -74.5q0 -41 -15.5 -76t-42 -61.5t-62.5 -42t-75 -15.5q-41 0 -75.5 15.5t-61.5 42t-42 61.5t-15 76zM170 1188q0 -41 27.5 -68.5t68.5 -27.5t68.5 27.5t27.5 68.5t-27.5 68.5 t-68.5 27.5t-68.5 -27.5t-27.5 -68.5z" />
<glyph unicode="&#xb1;" horiz-adv-x="1024" d="M88 41v219h313v197h-313v219h313v315h222v-315h313v-219h-313v-197h313v-219h-848z" />
<glyph unicode="&#xb2;" horiz-adv-x="630" d="M78 1106v129q100 63 163.5 114.5t98.5 91.5t48 71.5t13 60.5q0 39 -13 62.5t-31.5 35.5t-39 15.5t-36.5 3.5q-35 0 -73 -11.5t-91 -36.5l-39 105q57 31 115.5 48t125.5 17q113 0 169.5 -61t56.5 -149q0 -109 -74 -196t-203 -179v-2h287v-119h-477z" />
<glyph unicode="&#xb3;" horiz-adv-x="651" d="M78 1151l39 104q47 -23 95 -41t105 -18q68 0 93.5 32t25.5 60q0 100 -135 101h-92v110h86q76 0 100.5 34t24.5 71q0 33 -22.5 60.5t-73.5 27.5q-55 0 -99.5 -18.5t-91.5 -41.5l-41 105q113 66 244 65q92 0 155.5 -46t63.5 -136q0 -59 -31.5 -99t-89.5 -61v-2 q72 -18 106.5 -65t34.5 -107q0 -98 -66.5 -149.5t-189.5 -51.5q-66 0 -127 15.5t-114 50.5z" />
<glyph unicode="&#xb4;" horiz-adv-x="593" d="M121 1147l102 287h232l-181 -287h-153z" />
<glyph unicode="&#xb5;" d="M-147 -412l24 205q29 -4 51.5 -7t40.5 -3q66 0 91.5 28.5t25.5 94.5v1118h266v-641q0 -86 41 -135t123 -49q63 0 119.5 27.5t95.5 52.5v745h266v-1024h-266v133h-4q-66 -72 -150 -112.5t-184 -40.5h-16t-25 2v-105q0 -74 -14 -131t-51 -96t-99.5 -59.5t-156.5 -20.5 q-41 0 -88 5t-90 13z" />
<glyph unicode="&#xb6;" horiz-adv-x="1157" d="M61 999q0 92 30 165t84 124t130 78t168 27h596v-97h-168v-1296h-110v1296h-129v-692h-189q-92 0 -168 29t-130 81t-84 124.5t-30 160.5z" />
<glyph unicode="&#xb7;" horiz-adv-x="440" d="M88 365v294h264v-294h-264z" />
<glyph unicode="&#xb8;" horiz-adv-x="602" d="M113 -406l16 95q25 -4 47.5 -8.5t48.5 -4.5q53 0 76 25t23 55q0 31 -26 54.5t-79 31.5v158h98v-109q25 -4 54.5 -11t55.5 -24.5t43 -44t17 -69.5q0 -74 -55 -123t-153 -49q-37 0 -81 6t-85 18z" />
<glyph unicode="&#xb9;" horiz-adv-x="610" d="M78 1696q59 23 117.5 51.5t97.5 60.5h96v-591h143v-111h-419v111h143v440l-145 -64z" />
<glyph unicode="&#xba;" horiz-adv-x="651" d="M78 1130q0 123 56 195t192 72q135 0 191 -72t56 -195q0 -121 -56 -193.5t-191 -72.5t-191.5 73t-56.5 193zM217 1130q0 -72 22.5 -113.5t86.5 -41.5q63 0 85.5 42t22.5 113q0 72 -22.5 115t-85.5 43t-86 -43t-23 -115z" />
<glyph unicode="&#xbb;" horiz-adv-x="1495" d="M88 41v281l322 190l-322 190v281l602 -391v-160zM805 41v281l321 190l-321 190v281l602 -391v-160z" />
<glyph unicode="&#xbc;" horiz-adv-x="1638" d="M109 1286q59 23 117.5 51.5t97.5 61.5h96v-592h143v-111h-420v111h144v440l-146 -63zM475 0l758 1393h82l-758 -1393h-82zM993 160v112q86 92 157 196.5t124 227.5h168v-424h88v-112h-88v-160h-135v160h-314zM1130 272h177v248h-2q-41 -76 -81 -130t-94 -118z" />
<glyph unicode="&#xbd;" horiz-adv-x="1638" d="M109 1286q59 23 117.5 51.5t97.5 61.5h96v-592h143v-111h-420v111h144v440l-146 -63zM414 0l757 1393h82l-757 -1393h-82zM1053 0v129q100 63 163.5 114.5t98.5 91.5t48 71.5t13 60.5q0 39 -13 62.5t-31.5 36t-39.5 15.5t-37 3q-35 0 -72.5 -11.5t-90.5 -35.5l-39 104 q57 31 115.5 48.5t125.5 17.5q113 0 169.5 -61.5t56.5 -149.5q0 -109 -74 -196t-203 -179v-2h287v-119h-477z" />
<glyph unicode="&#xbe;" horiz-adv-x="1638" d="M109 741l38 105q47 -23 95.5 -41.5t105.5 -18.5q68 0 93.5 32t25.5 61q0 100 -135 100h-92v111h86q76 0 100.5 33.5t24.5 70.5q0 33 -23 60.5t-74 27.5q-55 0 -99 -18.5t-91 -40.5l-41 104q113 66 244 66q92 0 155.5 -46.5t63.5 -136.5q0 -59 -32 -99t-89 -60v-2 q72 -18 106.5 -65.5t34.5 -106.5q0 -98 -66.5 -149.5t-189.5 -51.5q-66 0 -127 15.5t-114 49.5zM475 0l758 1393h82l-758 -1393h-82zM993 160v112q86 92 157 196.5t124 227.5h168v-424h88v-112h-88v-160h-135v160h-314zM1130 272h177v248h-2q-41 -76 -81 -130t-94 -118z" />
<glyph unicode="&#xbf;" horiz-adv-x="1024" d="M88 -16q0 86 25.5 147.5t65.5 106.5t85 78.5t85 65.5t65.5 66.5t25.5 83.5v62h236v-62q0 -82 -23.5 -138t-58.5 -97t-76 -72.5t-75.5 -62.5t-58.5 -66t-24 -84q0 -51 20.5 -81.5t51.5 -46t67 -19.5t64 -4q51 0 131 14t166 43l76 -227q-90 -35 -203.5 -57.5t-224.5 -22.5 q-129 0 -210 36t-128 91t-64.5 120.5t-17.5 125.5zM426 727v297h264v-297h-264z" />
<glyph unicode="&#xc0;" horiz-adv-x="1331" d="M47 0l449 1403h344l444 -1403h-311l-94 315h-441l-94 -315h-297zM379 1782h233l103 -287h-154zM496 551h325l-157 500h-2z" />
<glyph unicode="&#xc1;" horiz-adv-x="1331" d="M47 0l449 1403h344l444 -1403h-311l-94 315h-441l-94 -315h-297zM496 551h325l-157 500h-2zM606 1495l103 287h231l-180 -287h-154z" />
<glyph unicode="&#xc2;" horiz-adv-x="1331" d="M47 0l449 1403h344l444 -1403h-311l-94 315h-441l-94 -315h-297zM356 1495l219 287h162l221 -287h-151l-150 121l-149 -121h-152zM496 551h325l-157 500h-2z" />
<glyph unicode="&#xc3;" horiz-adv-x="1331" d="M47 0l449 1403h344l444 -1403h-311l-94 315h-441l-94 -315h-297zM311 1561q53 111 110.5 156.5t110.5 45.5q37 0 75 -12t73 -27.5t65.5 -28t57.5 -12.5q29 0 58.5 6.5t74.5 53.5l70 -82q-43 -86 -92.5 -124t-104.5 -38q-31 0 -65.5 11.5t-69.5 24.5t-69.5 24.5 t-65.5 11.5q-33 0 -64 -13.5t-82 -60.5zM496 551h325l-157 500h-2z" />
<glyph unicode="&#xc4;" horiz-adv-x="1331" d="M47 0l449 1403h344l444 -1403h-311l-94 315h-441l-94 -315h-297zM299 1516v266h233v-266h-233zM496 551h325l-157 500h-2zM791 1516v266h233v-266h-233z" />
<glyph unicode="&#xc5;" horiz-adv-x="1331" d="M47 0l449 1403h344l444 -1403h-311l-94 315h-441l-94 -315h-297zM463 1679q0 39 15.5 75t42 62.5t61 42t75.5 15.5q39 0 75 -15.5t62.5 -42t42 -62.5t15.5 -75q0 -41 -15.5 -75.5t-42 -61t-62.5 -42t-75 -15.5q-41 0 -75.5 15.5t-61 42t-42 61t-15.5 75.5zM496 551h325 l-157 500h-2zM561 1679q0 -41 27.5 -68.5t68.5 -27.5t69 27.5t28 68.5t-28 69t-69 28t-68.5 -28t-27.5 -69z" />
<glyph unicode="&#xc6;" horiz-adv-x="1896" d="M47 0l668 1393h1083v-250h-659v-299h567v-250h-567v-344h669v-250h-950v387h-348l-182 -387h-281zM604 606h254v535h-4z" />
<glyph unicode="&#xc7;" horiz-adv-x="1269" d="M88 707q0 147 27.5 276t98.5 224.5t189.5 150.5t303.5 55q125 0 241.5 -17.5t259.5 -58.5l-63 -235q-82 18 -141.5 30.5t-107.5 19.5t-87 9t-80 2q-96 0 -162.5 -32.5t-107.5 -92t-58.5 -143.5t-17.5 -188q0 -111 17.5 -200t58.5 -150.5t107.5 -94.5t162.5 -33q41 0 80 2 t87 9.5t107.5 19.5t141.5 31l63 -236q-135 -41 -245.5 -57t-225.5 -18v-89q27 -4 56.5 -11t55 -24.5t42 -44t16.5 -69.5q0 -74 -54 -123t-155 -49q-37 0 -80 6t-83 18l14 95q25 -4 48.5 -8.5t49.5 -4.5q51 0 74.5 25t23.5 55q0 31 -25.5 54.5t-78.5 31.5v140 q-164 10 -270.5 70.5t-170 158.5t-88 225t-24.5 271z" />
<glyph unicode="&#xc8;" horiz-adv-x="1146" d="M109 0v1393h940v-250h-660v-299h567v-250h-567v-344h670v-250h-950zM354 1782h234l102 -287h-153z" />
<glyph unicode="&#xc9;" horiz-adv-x="1146" d="M109 0v1393h940v-250h-660v-299h567v-250h-567v-344h670v-250h-950zM477 1495l103 287h231l-180 -287h-154z" />
<glyph unicode="&#xca;" horiz-adv-x="1146" d="M109 0v1393h940v-250h-660v-299h567v-250h-567v-344h670v-250h-950zM301 1495l219 287h162l221 -287h-151l-150 121l-149 -121h-152z" />
<glyph unicode="&#xcb;" horiz-adv-x="1146" d="M109 0v1393h940v-250h-660v-299h567v-250h-567v-344h670v-250h-950zM213 1516v266h233v-266h-233zM705 1516v266h233v-266h-233z" />
<glyph unicode="&#xcc;" horiz-adv-x="495" d="M0 1782h233l103 -287h-154zM109 0v1393h280v-1393h-280z" />
<glyph unicode="&#xcd;" horiz-adv-x="495" d="M109 0v1393h280v-1393h-280zM174 1495l102 287h232l-180 -287h-154z" />
<glyph unicode="&#xce;" horiz-adv-x="495" d="M-51 1495l219 287h162l221 -287h-152l-149 121l-150 -121h-151zM106 0v1393h281v-1393h-281z" />
<glyph unicode="&#xcf;" horiz-adv-x="495" d="M-113 1516v266h234v-266h-234zM111 0v1393h280v-1393h-280zM379 1516v266h233v-266h-233z" />
<glyph unicode="&#xd0;" horiz-adv-x="1361" d="M6 627v159h133v607h518q180 0 299 -52.5t190 -143.5t99.5 -217t28.5 -273q0 -150 -28.5 -279t-99.5 -224t-189.5 -149.5t-299.5 -54.5h-518v627h-133zM420 250h237q98 0 162 32.5t98.5 92t48 143.5t13.5 189q0 104 -13.5 185t-48 136t-98 85t-162.5 30h-237v-357h225 v-159h-225v-377z" />
<glyph unicode="&#xd1;" horiz-adv-x="1331" d="M109 0v1393h280l557 -875h4v875h273v-1393h-295l-543 844h-4v-844h-272zM338 1561q53 111 110.5 156.5t110.5 45.5q37 0 75 -12t72.5 -27.5t65.5 -28t57 -12.5q29 0 59 6.5t75 53.5l69 -82q-43 -86 -92 -124t-104 -38q-31 0 -66 11.5t-69.5 24.5t-69.5 24.5t-66 11.5 q-33 0 -63.5 -13.5t-81.5 -60.5z" />
<glyph unicode="&#xd2;" horiz-adv-x="1413" d="M88 707q0 147 27.5 276t98.5 224.5t189.5 150.5t303.5 55q184 0 302.5 -55t189.5 -150.5t98.5 -224.5t27.5 -276q0 -150 -27.5 -282t-98.5 -231.5t-189.5 -156.5t-302.5 -57t-303 57t-190 156.5t-98.5 231.5t-27.5 282zM383 707q0 -104 12.5 -193.5t47 -156t98 -104.5 t166.5 -38q102 0 165.5 38t98.5 104.5t47 155.5t12 194q0 104 -12 190t-47 148.5t-98.5 97.5t-165.5 35t-166 -35t-98.5 -97.5t-47 -148.5t-12.5 -190zM485 1782h234l102 -287h-153z" />
<glyph unicode="&#xd3;" horiz-adv-x="1413" d="M88 707q0 147 27.5 276t98.5 224.5t189.5 150.5t303.5 55q184 0 302.5 -55t189.5 -150.5t98.5 -224.5t27.5 -276q0 -150 -27.5 -282t-98.5 -231.5t-189.5 -156.5t-302.5 -57t-303 57t-190 156.5t-98.5 231.5t-27.5 282zM383 707q0 -104 12.5 -193.5t47 -156t98 -104.5 t166.5 -38q102 0 165.5 38t98.5 104.5t47 155.5t12 194q0 104 -12 190t-47 148.5t-98.5 97.5t-165.5 35t-166 -35t-98.5 -97.5t-47 -148.5t-12.5 -190zM625 1495l102 287h231l-180 -287h-153z" />
<glyph unicode="&#xd4;" horiz-adv-x="1413" d="M88 707q0 147 27.5 276t98.5 224.5t189.5 150.5t303.5 55q184 0 302.5 -55t189.5 -150.5t98.5 -224.5t27.5 -276q0 -150 -27.5 -282t-98.5 -231.5t-189.5 -156.5t-302.5 -57t-303 57t-190 156.5t-98.5 231.5t-27.5 282zM383 707q0 -104 12.5 -193.5t47 -156t98 -104.5 t166.5 -38q102 0 165.5 38t98.5 104.5t47 155.5t12 194q0 104 -12 190t-47 148.5t-98.5 97.5t-165.5 35t-166 -35t-98.5 -97.5t-47 -148.5t-12.5 -190zM408 1495l219 287h161l222 -287h-152l-149 121l-150 -121h-151z" />
<glyph unicode="&#xd5;" horiz-adv-x="1413" d="M88 707q0 147 27.5 276t98.5 224.5t189.5 150.5t303.5 55q184 0 302.5 -55t189.5 -150.5t98.5 -224.5t27.5 -276q0 -150 -27.5 -282t-98.5 -231.5t-189.5 -156.5t-302.5 -57t-303 57t-190 156.5t-98.5 231.5t-27.5 282zM358 1561q53 111 110.5 156.5t111.5 45.5 q37 0 74.5 -12t72.5 -27.5t65.5 -28t57.5 -12.5q29 0 58.5 6.5t74.5 53.5l70 -82q-43 -86 -92.5 -124t-104.5 -38q-31 0 -65.5 11.5t-69.5 24.5t-69.5 24.5t-65.5 11.5q-33 0 -63.5 -13.5t-82.5 -60.5zM383 707q0 -104 12.5 -193.5t47 -156t98 -104.5t166.5 -38 q102 0 165.5 38t98.5 104.5t47 155.5t12 194q0 104 -12 190t-47 148.5t-98.5 97.5t-165.5 35t-166 -35t-98.5 -97.5t-47 -148.5t-12.5 -190z" />
<glyph unicode="&#xd6;" horiz-adv-x="1413" d="M88 707q0 147 27.5 276t98.5 224.5t189.5 150.5t303.5 55q184 0 302.5 -55t189.5 -150.5t98.5 -224.5t27.5 -276q0 -150 -27.5 -282t-98.5 -231.5t-189.5 -156.5t-302.5 -57t-303 57t-190 156.5t-98.5 231.5t-27.5 282zM352 1516v266h234v-266h-234zM383 707 q0 -104 12.5 -193.5t47 -156t98 -104.5t166.5 -38q102 0 165.5 38t98.5 104.5t47 155.5t12 194q0 104 -12 190t-47 148.5t-98.5 97.5t-165.5 35t-166 -35t-98.5 -97.5t-47 -148.5t-12.5 -190zM844 1516v266h233v-266h-233z" />
<glyph unicode="&#xd7;" horiz-adv-x="1077" d="M102 262l281 281l-281 280l156 156l281 -281l280 281l156 -156l-281 -280l281 -281l-156 -156l-280 281l-281 -281z" />
<glyph unicode="&#xd8;" horiz-adv-x="1413" d="M72 -8l151 190q-78 100 -106.5 235.5t-28.5 289.5q0 147 27.5 276t98.5 224.5t189.5 150.5t303.5 55q135 0 232 -31.5t167 -85.5l154 195l79 -66l-157 -198q82 -96 112.5 -229.5t30.5 -290.5q0 -150 -27.5 -282t-98.5 -231.5t-189.5 -156.5t-302.5 -57 q-141 0 -240.5 34.5t-171.5 94.5l-141 -181zM383 707q0 -76 7 -147t30 -128l522 658q-37 41 -93 64.5t-142 23.5q-102 0 -166 -35t-98.5 -97.5t-47 -148.5t-12.5 -190zM465 319q35 -51 93 -77.5t149 -26.5q102 0 165.5 38t98.5 104.5t47 156t12 193.5q0 78 -8 148.5 t-33 127.5z" />
<glyph unicode="&#xd9;" horiz-adv-x="1310" d="M109 492v901h280v-901q0 -129 59 -203t209 -74q80 0 132.5 22.5t81 60.5t40 88t11.5 106v901h280v-901q0 -135 -39 -232.5t-110.5 -160t-173 -91t-224.5 -28.5q-125 0 -225 28.5t-172 91t-110.5 159.5t-38.5 233zM393 1782h234l102 -287h-154z" />
<glyph unicode="&#xda;" horiz-adv-x="1310" d="M109 492v901h280v-901q0 -129 59 -203t209 -74q80 0 132.5 22.5t81 60.5t40 88t11.5 106v901h280v-901q0 -135 -39 -232.5t-110.5 -160t-173 -91t-224.5 -28.5q-125 0 -225 28.5t-172 91t-110.5 159.5t-38.5 233zM575 1495l103 287h231l-180 -287h-154z" />
<glyph unicode="&#xdb;" horiz-adv-x="1310" d="M109 492v901h280v-901q0 -129 59 -203t209 -74q80 0 132.5 22.5t81 60.5t40 88t11.5 106v901h280v-901q0 -135 -39 -232.5t-110.5 -160t-173 -91t-224.5 -28.5q-125 0 -225 28.5t-172 91t-110.5 159.5t-38.5 233zM354 1495l219 287h162l221 -287h-151l-150 121l-149 -121 h-152z" />
<glyph unicode="&#xdc;" horiz-adv-x="1310" d="M109 492v901h280v-901q0 -129 59 -203t209 -74q80 0 132.5 22.5t81 60.5t40 88t11.5 106v901h280v-901q0 -135 -39 -232.5t-110.5 -160t-173 -91t-224.5 -28.5q-125 0 -225 28.5t-172 91t-110.5 159.5t-38.5 233zM291 1516v266h233v-266h-233zM782 1516v266h234v-266 h-234z" />
<glyph unicode="&#xdd;" horiz-adv-x="1269" d="M47 1393h320l274 -617h4l273 617h305l-447 -901v-492h-282v492zM580 1495l102 287h231l-180 -287h-153z" />
<glyph unicode="&#xde;" horiz-adv-x="1228" d="M109 0v1393h280v-236h297q109 0 197 -32.5t149.5 -91t95 -142.5t33.5 -184q0 -104 -33.5 -187.5t-95 -142t-149.5 -90t-197 -31.5h-297v-256h-280zM389 506h266q45 0 84 11t69 34.5t47 61.5t17 94q0 53 -17 91t-47 62.5t-69 35.5t-84 11h-266v-401z" />
<glyph unicode="&#xdf;" horiz-adv-x="1320" d="M31 836v172l139 16q0 121 41 201t109.5 126t155.5 64.5t179 18.5q94 0 176 -16.5t141.5 -52.5t93.5 -94.5t34 -144.5q0 -84 -38 -139t-82 -95t-82 -73t-38 -71q0 -39 25.5 -57.5t62.5 -35.5q94 -35 155.5 -73.5t96.5 -81.5t49.5 -89t14.5 -96q0 -94 -37 -157.5 t-98.5 -103.5t-140.5 -57t-161 -17q-78 0 -141 11t-123 29l33 205q66 -23 119 -32t104 -9q49 0 81 12.5t50.5 32t25.5 42t7 40.5q0 43 -24.5 75t-59.5 54.5t-70.5 39t-60.5 28.5q-43 25 -72.5 45t-49 44t-28 52.5t-8.5 69.5q0 59 29 101t62.5 80t62.5 79t29 100 q0 39 -13.5 67t-36 45t-51 24.5t-59.5 7.5q-104 0 -151.5 -65.5t-47.5 -188.5v-969h-264v836h-139z" />
<glyph unicode="&#xe0;" horiz-adv-x="1034" d="M57 295q0 94 39 155.5t100.5 98.5t138.5 51t152 14h195v72q0 80 -49 109.5t-152 29.5q-59 0 -135 -9t-186 -32l-39 213q111 23 220.5 35t201.5 12q98 0 173 -15t126 -53t77.5 -104.5t26.5 -169.5v-702h-264v102h-4q-66 -68 -136.5 -95t-166.5 -27q-78 0 -136.5 24.5 t-99.5 66.5t-61.5 99t-20.5 125zM309 1434h234l102 -287h-154zM322 317q0 -68 47 -100.5t112 -32.5q63 0 117.5 20.5t83.5 43.5v209h-180q-180 0 -180 -140z" />
<glyph unicode="&#xe1;" horiz-adv-x="1034" d="M57 295q0 94 39 155.5t100.5 98.5t138.5 51t152 14h195v72q0 80 -49 109.5t-152 29.5q-59 0 -135 -9t-186 -32l-39 213q111 23 220.5 35t201.5 12q98 0 173 -15t126 -53t77.5 -104.5t26.5 -169.5v-702h-264v102h-4q-66 -68 -136.5 -95t-166.5 -27q-78 0 -136.5 24.5 t-99.5 66.5t-61.5 99t-20.5 125zM322 317q0 -68 47 -100.5t112 -32.5q63 0 117.5 20.5t83.5 43.5v209h-180q-180 0 -180 -140zM461 1147l102 287h232l-181 -287h-153z" />
<glyph unicode="&#xe2;" horiz-adv-x="1034" d="M57 295q0 94 39 155.5t100.5 98.5t138.5 51t152 14h195v72q0 80 -49 109.5t-152 29.5q-59 0 -135 -9t-186 -32l-39 213q111 23 220.5 35t201.5 12q98 0 173 -15t126 -53t77.5 -104.5t26.5 -169.5v-702h-264v102h-4q-66 -68 -136.5 -95t-166.5 -27q-78 0 -136.5 24.5 t-99.5 66.5t-61.5 99t-20.5 125zM252 1147l219 287h162l221 -287h-151l-150 121l-149 -121h-152zM322 317q0 -68 47 -100.5t112 -32.5q63 0 117.5 20.5t83.5 43.5v209h-180q-180 0 -180 -140z" />
<glyph unicode="&#xe3;" horiz-adv-x="1034" d="M57 295q0 94 39 155.5t100.5 98.5t138.5 51t152 14h195v72q0 80 -49 109.5t-152 29.5q-59 0 -135 -9t-186 -32l-39 213q111 23 220.5 35t201.5 12q98 0 173 -15t126 -53t77.5 -104.5t26.5 -169.5v-702h-264v102h-4q-66 -68 -136.5 -95t-166.5 -27q-78 0 -136.5 24.5 t-99.5 66.5t-61.5 99t-20.5 125zM197 1212q53 111 110.5 157t110.5 46q37 0 75 -12t72.5 -27.5t65.5 -28t57 -12.5q29 0 58.5 6.5t74.5 53.5l70 -82q-43 -86 -92 -124t-105 -38q-31 0 -65.5 11.5t-69.5 24.5t-69.5 24.5t-65.5 11.5q-33 0 -63.5 -13.5t-81.5 -60.5zM322 317 q0 -68 47 -100.5t112 -32.5q63 0 117.5 20.5t83.5 43.5v209h-180q-180 0 -180 -140z" />
<glyph unicode="&#xe4;" horiz-adv-x="1034" d="M57 295q0 94 39 155.5t100.5 98.5t138.5 51t152 14h195v72q0 80 -49 109.5t-152 29.5q-59 0 -135 -9t-186 -32l-39 213q111 23 220.5 35t201.5 12q98 0 173 -15t126 -53t77.5 -104.5t26.5 -169.5v-702h-264v102h-4q-66 -68 -136.5 -95t-166.5 -27q-78 0 -136.5 24.5 t-99.5 66.5t-61.5 99t-20.5 125zM188 1167v267h233v-267h-233zM322 317q0 -68 47 -100.5t112 -32.5q63 0 117.5 20.5t83.5 43.5v209h-180q-180 0 -180 -140zM680 1167v267h233v-267h-233z" />
<glyph unicode="&#xe5;" horiz-adv-x="1034" d="M57 295q0 94 39 155.5t100.5 98.5t138.5 51t152 14h195v72q0 80 -49 109.5t-152 29.5q-59 0 -135 -9t-186 -32l-39 213q111 23 220.5 35t201.5 12q98 0 173 -15t126 -53t77.5 -104.5t26.5 -169.5v-702h-264v102h-4q-66 -68 -136.5 -95t-166.5 -27q-78 0 -136.5 24.5 t-99.5 66.5t-61.5 99t-20.5 125zM322 317q0 -68 47 -100.5t112 -32.5q63 0 117.5 20.5t83.5 43.5v209h-180q-180 0 -180 -140zM359 1331q0 39 15 75t42 62.5t61.5 42t75.5 15.5q39 0 75 -15.5t62.5 -42t42 -62.5t15.5 -75q0 -41 -15.5 -75.5t-42 -61.5t-62.5 -42t-75 -15 q-41 0 -75.5 15t-61.5 42t-42 61.5t-15 75.5zM457 1331q0 -41 27.5 -68.5t68.5 -27.5t68.5 27.5t27.5 68.5t-27.5 68.5t-68.5 27.5t-68.5 -27.5t-27.5 -68.5z" />
<glyph unicode="&#xe6;" horiz-adv-x="1699" d="M55 295q0 94 39 155.5t100.5 98.5t138.5 51t152 14h195v62q0 86 -45 116.5t-154 30.5q-61 0 -136 -8t-185 -31l-41 213q109 18 213 32.5t198 14.5q45 0 94.5 -5t94.5 -15t83 -28.5t62 -45.5q59 45 144 69.5t200 24.5q162 0 255 -51t135 -134t45.5 -188.5t-13.5 -215.5 h-661q6 -117 73.5 -186.5t208.5 -69.5q66 0 142.5 6t175.5 35l33 -213q-102 -29 -195.5 -38t-194.5 -9q-66 0 -131 9t-124.5 30.5t-109.5 58.5t-83 90q-53 -59 -103.5 -96t-98.5 -57.5t-95 -27.5t-94 -7q-78 0 -136.5 24.5t-99.5 66.5t-61.5 99t-20.5 125zM322 317 q0 -68 47 -100.5t112 -32.5q59 0 119.5 21.5t101.5 58.5q-10 45 -15 92t-7 99h-178q-180 0 -180 -138zM969 621h403q6 43 2 82.5t-23.5 69.5t-58.5 48.5t-100 18.5q-111 0 -162 -59.5t-61 -159.5z" />
<glyph unicode="&#xe7;" horiz-adv-x="983" d="M68 512q0 121 26.5 219t88 168t161.5 107.5t250 37.5q98 0 182 -13t176 -36l-47 -211q-63 14 -109 23.5t-82 12.5t-63.5 4t-56.5 1q-121 0 -183.5 -79.5t-62.5 -233.5q0 -152 62.5 -232.5t183.5 -80.5q29 0 56.5 1t63.5 4t82 11t109 25l47 -213q-92 -23 -173 -34 t-173 -13v-89q27 -4 56.5 -11t55 -24.5t42 -44t16.5 -69.5q0 -74 -55 -123t-154 -49q-37 0 -81 6t-85 18l17 95q25 -4 47 -8.5t51 -4.5q51 0 74.5 25t23.5 55q0 31 -26.5 55.5t-77.5 30.5v142q-125 8 -209 50t-136 110.5t-74.5 161.5t-22.5 206z" />
<glyph unicode="&#xe8;" d="M68 512q0 121 27.5 219t90 168t163 107.5t245.5 37.5q162 0 255 -50t135 -133t45 -188.5t-13 -215.5h-662q6 -117 74 -187.5t209 -70.5q66 0 142.5 6t174.5 35l33 -213q-102 -29 -194.5 -38t-192.5 -9q-147 0 -249.5 37.5t-165 107.5t-90 168t-27.5 219zM330 1434h234 l102 -287h-154zM354 621h404q6 43 2 82.5t-23.5 70.5t-57.5 48.5t-99 17.5q-113 0 -164 -59.5t-62 -159.5z" />
<glyph unicode="&#xe9;" d="M68 512q0 121 27.5 219t90 168t163 107.5t245.5 37.5q162 0 255 -50t135 -133t45 -188.5t-13 -215.5h-662q6 -117 74 -187.5t209 -70.5q66 0 142.5 6t174.5 35l33 -213q-102 -29 -194.5 -38t-192.5 -9q-147 0 -249.5 37.5t-165 107.5t-90 168t-27.5 219zM354 621h404 q6 43 2 82.5t-23.5 70.5t-57.5 48.5t-99 17.5q-113 0 -164 -59.5t-62 -159.5zM543 1147l102 287h232l-181 -287h-153z" />
<glyph unicode="&#xea;" d="M68 512q0 121 27.5 219t90 168t163 107.5t245.5 37.5q162 0 255 -50t135 -133t45 -188.5t-13 -215.5h-662q6 -117 74 -187.5t209 -70.5q66 0 142.5 6t174.5 35l33 -213q-102 -29 -194.5 -38t-192.5 -9q-147 0 -249.5 37.5t-165 107.5t-90 168t-27.5 219zM291 1147 l219 287h162l221 -287h-151l-150 121l-149 -121h-152zM354 621h404q6 43 2 82.5t-23.5 70.5t-57.5 48.5t-99 17.5q-113 0 -164 -59.5t-62 -159.5z" />
<glyph unicode="&#xeb;" d="M68 512q0 121 27.5 219t90 168t163 107.5t245.5 37.5q162 0 255 -50t135 -133t45 -188.5t-13 -215.5h-662q6 -117 74 -187.5t209 -70.5q66 0 142.5 6t174.5 35l33 -213q-102 -29 -194.5 -38t-192.5 -9q-147 0 -249.5 37.5t-165 107.5t-90 168t-27.5 219zM219 1167v267 h233v-267h-233zM354 621h404q6 43 2 82.5t-23.5 70.5t-57.5 48.5t-99 17.5q-113 0 -164 -59.5t-62 -159.5zM711 1167v267h233v-267h-233z" />
<glyph unicode="&#xec;" horiz-adv-x="440" d="M-33 1434h234l102 -287h-154zM88 0v1024h264v-1024h-264z" />
<glyph unicode="&#xed;" horiz-adv-x="440" d="M88 0v1024h264v-1024h-264zM152 1147l102 287h232l-181 -287h-153z" />
<glyph unicode="&#xee;" horiz-adv-x="440" d="M-80 1147l219 287h162l221 -287h-151l-150 121l-149 -121h-152zM88 0v1024h264v-1024h-264z" />
<glyph unicode="&#xef;" horiz-adv-x="440" d="M-141 1167v267h233v-267h-233zM90 0v1024h264v-1024h-264zM350 1167v267h234v-267h-234z" />
<glyph unicode="&#xf0;" horiz-adv-x="1126" d="M66 451q0 231 114.5 356t313.5 125q88 0 164.5 -40t129.5 -106l5 2q0 78 -21.5 161t-75.5 141l-112 -115l-90 92l86 88q-35 16 -73 26.5t-79 10.5q-61 0 -128 -10.5t-159 -44.5l-32 202q47 18 88 32.5t80.5 24t82.5 13.5t93 4q84 0 161.5 -18.5t145.5 -59.5l149 150 l90 -90l-133 -135q90 -90 141.5 -247t51.5 -399q0 -123 -27.5 -237.5t-89 -202.5t-159 -141t-236.5 -53q-106 0 -194.5 31.5t-152 93t-99 148.5t-35.5 198zM348 451q0 -125 62.5 -188.5t148.5 -63.5q61 0 103.5 25.5t67 68.5t34.5 98t10 117q0 23 -1 41t-3 41 q-41 47 -91 78.5t-114 31.5q-66 0 -107.5 -23.5t-66 -60t-34 -80.5t-9.5 -85z" />
<glyph unicode="&#xf1;" d="M86 0v1024h266v-133h4q66 72 150 112.5t184 40.5q154 0 230.5 -92t76.5 -252v-700h-266v639q0 80 -38 132t-126 52q-63 0 -119.5 -26.5t-95.5 -53.5v-743h-266zM201 1212q53 111 110.5 157t110.5 46q37 0 75 -12t72.5 -27.5t65.5 -28t57 -12.5q29 0 58.5 6.5t74.5 53.5 l70 -82q-43 -86 -92 -124t-105 -38q-31 0 -65.5 11.5t-69.5 24.5t-69.5 24.5t-65.5 11.5q-33 0 -63.5 -13.5t-81.5 -60.5z" />
<glyph unicode="&#xf2;" horiz-adv-x="1126" d="M68 512q0 121 26.5 219t86 168t153.5 107.5t229 37.5t229.5 -37.5t154 -107.5t86 -168t26.5 -219t-26.5 -219t-86 -168t-154 -107.5t-229.5 -37.5t-229 37.5t-153.5 107.5t-86 168t-26.5 219zM317 1434h234l102 -287h-154zM348 512q0 -72 10.5 -129t35 -98t65.5 -63.5 t104 -22.5q125 0 170 85t45 228t-45 228t-170 85q-63 0 -104 -22.5t-65.5 -63.5t-35 -98t-10.5 -129z" />
<glyph unicode="&#xf3;" horiz-adv-x="1126" d="M68 512q0 121 26.5 219t86 168t153.5 107.5t229 37.5t229.5 -37.5t154 -107.5t86 -168t26.5 -219t-26.5 -219t-86 -168t-154 -107.5t-229.5 -37.5t-229 37.5t-153.5 107.5t-86 168t-26.5 219zM348 512q0 -72 10.5 -129t35 -98t65.5 -63.5t104 -22.5q125 0 170 85t45 228 t-45 228t-170 85q-63 0 -104 -22.5t-65.5 -63.5t-35 -98t-10.5 -129zM496 1147l102 287h232l-181 -287h-153z" />
<glyph unicode="&#xf4;" horiz-adv-x="1126" d="M68 512q0 121 26.5 219t86 168t153.5 107.5t229 37.5t229.5 -37.5t154 -107.5t86 -168t26.5 -219t-26.5 -219t-86 -168t-154 -107.5t-229.5 -37.5t-229 37.5t-153.5 107.5t-86 168t-26.5 219zM262 1147l219 287h162l221 -287h-151l-150 121l-149 -121h-152zM348 512 q0 -72 10.5 -129t35 -98t65.5 -63.5t104 -22.5q125 0 170 85t45 228t-45 228t-170 85q-63 0 -104 -22.5t-65.5 -63.5t-35 -98t-10.5 -129z" />
<glyph unicode="&#xf5;" horiz-adv-x="1126" d="M68 512q0 121 26.5 219t86 168t153.5 107.5t229 37.5t229.5 -37.5t154 -107.5t86 -168t26.5 -219t-26.5 -219t-86 -168t-154 -107.5t-229.5 -37.5t-229 37.5t-153.5 107.5t-86 168t-26.5 219zM219 1212q53 111 110.5 157t110.5 46q37 0 75 -12t72.5 -27.5t65.5 -28 t57 -12.5q29 0 58.5 6.5t74.5 53.5l70 -82q-43 -86 -92 -124t-105 -38q-31 0 -65.5 11.5t-69.5 24.5t-69.5 24.5t-65.5 11.5q-33 0 -63.5 -13.5t-81.5 -60.5zM348 512q0 -72 10.5 -129t35 -98t65.5 -63.5t104 -22.5q125 0 170 85t45 228t-45 228t-170 85q-63 0 -104 -22.5 t-65.5 -63.5t-35 -98t-10.5 -129z" />
<glyph unicode="&#xf6;" horiz-adv-x="1126" d="M68 512q0 121 26.5 219t86 168t153.5 107.5t229 37.5t229.5 -37.5t154 -107.5t86 -168t26.5 -219t-26.5 -219t-86 -168t-154 -107.5t-229.5 -37.5t-229 37.5t-153.5 107.5t-86 168t-26.5 219zM201 1167v267h233v-267h-233zM348 512q0 -72 10.5 -129t35 -98t65.5 -63.5 t104 -22.5q125 0 170 85t45 228t-45 228t-170 85q-63 0 -104 -22.5t-65.5 -63.5t-35 -98t-10.5 -129zM693 1167v267h233v-267h-233z" />
<glyph unicode="&#xf7;" horiz-adv-x="1024" d="M88 463v160h848v-160h-848zM395 72v266h234v-266h-234zM395 748v266h234v-266h-234z" />
<glyph unicode="&#xf8;" horiz-adv-x="1126" d="M51 -8l121 141q-55 72 -79.5 167t-24.5 212q0 121 26.5 219t86 168t153.5 107.5t229 37.5q100 0 178 -23.5t133 -64.5l119 140l82 -64l-123 -143q55 -70 81 -165t26 -212q0 -121 -26.5 -219t-86 -168t-154 -107.5t-229.5 -37.5q-102 0 -179 22.5t-134 63.5l-119 -138z M348 530q0 -41 4 -87t15 -78l344 401q-25 29 -61 44t-87 15q-61 0 -102 -21.5t-65.5 -59t-36 -92t-11.5 -122.5zM414 256q25 -29 60.5 -43t88.5 -14q125 0 170 85t45 224q0 82 -22 149z" />
<glyph unicode="&#xf9;" d="M86 322v702h266v-641q0 -80 42 -132t122 -52q63 0 119.5 27.5t95.5 52.5v745h266v-1024h-266v133h-4q-66 -72 -149.5 -112.5t-184.5 -40.5q-154 0 -230.5 92t-76.5 250zM266 1434h234l102 -287h-154z" />
<glyph unicode="&#xfa;" d="M86 322v702h266v-641q0 -80 42 -132t122 -52q63 0 119.5 27.5t95.5 52.5v745h266v-1024h-266v133h-4q-66 -72 -149.5 -112.5t-184.5 -40.5q-154 0 -230.5 92t-76.5 250zM475 1147l102 287h232l-181 -287h-153z" />
<glyph unicode="&#xfb;" d="M86 322v702h266v-641q0 -80 42 -132t122 -52q63 0 119.5 27.5t95.5 52.5v745h266v-1024h-266v133h-4q-66 -72 -149.5 -112.5t-184.5 -40.5q-154 0 -230.5 92t-76.5 250zM244 1147l219 287h162l221 -287h-151l-150 121l-149 -121h-152z" />
<glyph unicode="&#xfc;" d="M86 322v702h266v-641q0 -80 42 -132t122 -52q63 0 119.5 27.5t95.5 52.5v745h266v-1024h-266v133h-4q-66 -72 -149.5 -112.5t-184.5 -40.5q-154 0 -230.5 92t-76.5 250zM180 1167v267h233v-267h-233zM672 1167v267h233v-267h-233z" />
<glyph unicode="&#xfd;" horiz-adv-x="1146" d="M51 1024h297l236 -748h4l225 748h283l-363 -1061q-37 -111 -81 -185.5t-99 -120.5t-123 -66.5t-154 -20.5q-41 0 -92 4t-92 14l25 219q25 -4 53.5 -7t44.5 -3q74 0 130 51.5t85 137.5zM514 1147l102 287h232l-181 -287h-153z" />
<glyph unicode="&#xfe;" d="M86 -410v1844h266v-512h4q49 53 126 87.5t163 34.5q106 0 178 -41.5t115 -114.5t61.5 -170t18.5 -206q0 -111 -20.5 -207t-66.5 -169t-121 -114.5t-181 -41.5q-78 0 -150.5 30.5t-122.5 83.5h-4v-504h-266zM352 262q25 -18 72 -40.5t113 -22.5q57 0 96 24.5t62.5 66.5 t32.5 99t9 123t-9 122t-32.5 98t-62.5 66.5t-96 24.5q-66 0 -113 -22.5t-72 -40.5v-498z" />
<glyph unicode="&#xff;" horiz-adv-x="1146" d="M51 1024h297l236 -748h4l225 748h283l-363 -1061q-37 -111 -81 -185.5t-99 -120.5t-123 -66.5t-154 -20.5q-41 0 -92 4t-92 14l25 219q25 -4 53.5 -7t44.5 -3q74 0 130 51.5t85 137.5zM219 1167v267h233v-267h-233zM711 1167v267h233v-267h-233z" />
<glyph unicode="&#x152;" horiz-adv-x="2068" d="M86 707q0 147 27.5 276t98.5 224.5t190.5 150.5t304.5 55q96 0 169.5 -18.5t129.5 -53.5v52h964v-252h-659v-297h567v-250h-567v-344h669v-250h-976v53q-61 -45 -133 -59t-164 -14q-184 0 -304 57t-191 156.5t-98.5 231.5t-27.5 282zM383 707q0 -104 12.5 -193.5t47 -156 t98 -104.5t166.5 -38q102 0 164.5 38t97.5 104.5t47 155.5t12 194q0 104 -12 190t-47 148.5t-97.5 97.5t-164.5 35t-166 -35t-98.5 -97.5t-47 -148.5t-12.5 -190z" />
<glyph unicode="&#x153;" horiz-adv-x="1800" d="M68 512q0 121 26.5 219t86 168t153.5 107.5t229 37.5q123 0 212 -33.5t149 -95.5q61 61 155.5 95t229.5 34q162 0 255 -50t135 -133t45 -188.5t-13 -215.5h-662q6 -117 72.5 -187.5t210.5 -70.5q66 0 142.5 6t174.5 35l33 -213q-102 -29 -195.5 -38t-193.5 -9 q-137 0 -232.5 33.5t-156.5 92.5q-59 -59 -147.5 -92.5t-213.5 -33.5q-135 0 -229 37.5t-153.5 107.5t-86 168t-26.5 219zM348 512q0 -72 10.5 -129t35 -98t65.5 -63.5t104 -22.5q125 0 170 85t45 228t-45 228t-170 85q-63 0 -104 -22.5t-65.5 -63.5t-35 -98t-10.5 -129z M1069 621h404q6 43 1.5 82.5t-24.5 70.5t-58.5 48.5t-99.5 17.5q-113 0 -163 -59.5t-60 -159.5z" />
<glyph unicode="&#x178;" horiz-adv-x="1269" d="M47 1393h320l274 -617h4l273 617h305l-447 -901v-492h-282v492zM287 1516v266h233v-266h-233zM778 1516v266h234v-266h-234z" />
<glyph unicode="&#x2c6;" horiz-adv-x="860" d="M129 1147l219 287h162l221 -287h-151l-150 121l-149 -121h-152z" />
<glyph unicode="&#x2dc;" horiz-adv-x="921" d="M115 1212q53 111 110.5 157t110.5 46q37 0 75 -12t72.5 -27.5t65.5 -28t57 -12.5q29 0 58.5 6.5t74.5 53.5l70 -82q-43 -86 -92 -124t-105 -38q-31 0 -65.5 11.5t-69.5 24.5t-69.5 24.5t-65.5 11.5q-33 0 -63.5 -13.5t-81.5 -60.5z" />
<glyph unicode="&#x2000;" horiz-adv-x="937" />
<glyph unicode="&#x2001;" horiz-adv-x="1874" />
<glyph unicode="&#x2002;" horiz-adv-x="937" />
<glyph unicode="&#x2003;" horiz-adv-x="1874" />
<glyph unicode="&#x2004;" horiz-adv-x="624" />
<glyph unicode="&#x2005;" horiz-adv-x="468" />
<glyph unicode="&#x2006;" horiz-adv-x="312" />
<glyph unicode="&#x2007;" horiz-adv-x="312" />
<glyph unicode="&#x2008;" horiz-adv-x="234" />
<glyph unicode="&#x2009;" horiz-adv-x="374" />
<glyph unicode="&#x200a;" horiz-adv-x="104" />
<glyph unicode="&#x2010;" horiz-adv-x="1024" d="M88 432v221h848v-221h-848z" />
<glyph unicode="&#x2011;" horiz-adv-x="1024" d="M88 432v221h848v-221h-848z" />
<glyph unicode="&#x2012;" horiz-adv-x="1024" d="M88 432v221h848v-221h-848z" />
<glyph unicode="&#x2013;" horiz-adv-x="1228" d="M88 432v221h1053v-221h-1053z" />
<glyph unicode="&#x2014;" horiz-adv-x="1433" d="M88 432v221h1258v-221h-1258z" />
<glyph unicode="&#x2018;" horiz-adv-x="440" d="M88 829v297l127 267h82l-51 -267h106v-297h-264z" />
<glyph unicode="&#x2019;" horiz-adv-x="440" d="M88 1096v297h264v-297l-127 -267h-82l52 267h-107z" />
<glyph unicode="&#x201a;" horiz-adv-x="440" d="M88 0v297h264v-297l-127 -266h-82l52 266h-107z" />
<glyph unicode="&#x201c;" horiz-adv-x="890" d="M88 829v297l127 267h82l-51 -267h106v-297h-264zM539 829v297l127 267h82l-52 -267h107v-297h-264z" />
<glyph unicode="&#x201d;" horiz-adv-x="890" d="M88 1096v297h264v-297l-127 -267h-82l52 267h-107zM539 1096v297h264v-297l-127 -267h-82l51 267h-106z" />
<glyph unicode="&#x201e;" horiz-adv-x="890" d="M88 0v297h264v-297l-127 -266h-82l52 266h-107zM539 0v297h264v-297l-127 -266h-82l51 266h-106z" />
<glyph unicode="&#x2022;" horiz-adv-x="471" d="M88 365v294h264v-294h-264z" />
<glyph unicode="&#x2026;" horiz-adv-x="1341" d="M129 0v297h264v-297h-264zM539 0v297h264v-297h-264zM948 0v297h264v-297h-264z" />
<glyph unicode="&#x202f;" horiz-adv-x="374" />
<glyph unicode="&#x2039;" horiz-adv-x="778" d="M88 432v160l602 391v-281l-321 -190l321 -190v-281z" />
<glyph unicode="&#x203a;" horiz-adv-x="778" d="M88 41v281l322 190l-322 190v281l602 -391v-160z" />
<glyph unicode="&#x205f;" horiz-adv-x="468" />
<glyph unicode="&#x20ac;" horiz-adv-x="1433" d="M86 473v158h145q-2 18 -2 37.5v38.5v25t2 28h-145v158h166q23 109 72 199.5t122.5 156t175 102.5t228.5 37q96 0 175 -18.5t142.5 -44t109.5 -56t79 -55.5l-94 -213q-104 78 -199.5 106.5t-167.5 28.5q-135 0 -214 -66.5t-114 -176.5h359l-19 -158h-379q-2 -14 -2 -27.5 v-25.5v-39t4 -37h396l-19 -158h-336q39 -106 117 -175t207 -69q72 0 167 29t200 107l94 -211q-33 -25 -79 -55.5t-109.5 -57.5t-142.5 -44t-175 -17q-125 0 -224.5 36.5t-173 103t-122.5 157t-74 196.5h-170z" />
<glyph unicode="&#x2122;" horiz-adv-x="1638" d="M72 1249v144h561v-144h-203v-561h-158v561h-200zM774 688v705h223l172 -441h2l162 441h223v-705h-159v442h-4l-172 -442h-123l-170 442h-4v-442h-150z" />
<glyph unicode="&#x25fc;" horiz-adv-x="1024" d="M0 0v1024h1024v-1024h-1024z" />
</font>
</defs>
</svg>
